<?xml version="1.0" encoding="UTF-8" standalone="no"?>
<!-- Created with Inkscape (http://www.inkscape.org/) -->

<svg
   xmlns:dc="http://purl.org/dc/elements/1.1/"
   xmlns:cc="http://creativecommons.org/ns#"
   xmlns:rdf="http://www.w3.org/1999/02/22-rdf-syntax-ns#"
   xmlns:svg="http://www.w3.org/2000/svg"
   xmlns="http://www.w3.org/2000/svg"
   xmlns:xlink="http://www.w3.org/1999/xlink"
   xmlns:sodipodi="http://sodipodi.sourceforge.net/DTD/sodipodi-0.dtd"
   xmlns:inkscape="http://www.inkscape.org/namespaces/inkscape"
   width="72"
   height="72"
   id="svg2"
   version="1.1"
   inkscape:version="0.48.4 r9939"
   sodipodi:docname="icon.svg"
   inkscape:export-filename="/home/zrohde/git/gps-auto-dash/resources/icon.png"
   inkscape:export-xdpi="90"
   inkscape:export-ydpi="90">
  <defs
     id="defs4">
    <linearGradient
       inkscape:collect="always"
       id="linearGradient4809">
      <stop
         style="stop-color:#241c1c;stop-opacity:1;"
         offset="0"
         id="stop4811" />
      <stop
         style="stop-color:#241c1c;stop-opacity:0;"
         offset="1"
         id="stop4813" />
    </linearGradient>
    <linearGradient
       inkscape:collect="always"
       xlink:href="#linearGradient4809"
       id="linearGradient4815"
       x1="17.942835"
       y1="53.129087"
       x2="99.260118"
       y2="53.129087"
       gradientUnits="userSpaceOnUse"
       gradientTransform="matrix(1.0918451,0,0,1.1568381,553.06211,680.6481)" />
  </defs>
  <sodipodi:namedview
     id="base"
     pagecolor="#ffffff"
     bordercolor="#666666"
     borderopacity="1.0"
     inkscape:pageopacity="0.0"
     inkscape:pageshadow="2"
     inkscape:zoom="45.254834"
     inkscape:cx="24.157049"
     inkscape:cy="67.158175"
     inkscape:document-units="px"
     inkscape:current-layer="layer1"
     showgrid="true"
     inkscape:window-width="1920"
     inkscape:window-height="1014"
     inkscape:window-x="0"
     inkscape:window-y="27"
     inkscape:window-maximized="1"
     inkscape:snap-bbox="true"
     inkscape:bbox-paths="false"
     showguides="false"
     inkscape:snap-global="false">
    <inkscape:grid
       type="xygrid"
       id="grid3122"
       empspacing="5"
       visible="true"
       enabled="true"
       snapvisiblegridlinesonly="true" />
  </sodipodi:namedview>
  <metadata
     id="metadata7">
    <rdf:RDF>
      <cc:Work
         rdf:about="">
        <dc:format>image/svg+xml</dc:format>
        <dc:type
           rdf:resource="http://purl.org/dc/dcmitype/StillImage" />
        <dc:title></dc:title>
      </cc:Work>
    </rdf:RDF>
  </metadata>
  <g
     inkscape:label="Layer 1"
     inkscape:groupmode="layer"
     id="layer1"
     transform="translate(0,-980.36218)">
    <path
       id="path3061"
       d="M 8.0564768,980.5582 H 64.056477 c 4.42,0 8,3.57999 8,7.99999 v 56.00001 c 0,4.42 -3.58,8 -8,8 H 8.0564768 c -4.42,0 -7.99999995,-3.58 -7.99999995,-8 v -56.00001 c 0,-4.42 3.57999995,-7.99999 7.99999995,-7.99999 z m 56.0000002,7.95999 H 52.056476 c 0,6.61995 5.380001,12.04001 12.000001,12.04001 v -12.04001 z m 0,28.04011 v -8.0002 c -11.040001,0 -20,-8.99998 -20,-20.03991 h -8 c 0,15.45991 12.54,28.04011 28,28.04011 z m 0,24 -14,-17.9999 -10,12.0198 -14,-18.0199 -18.0000002,24 H 64.056477 z"
       inkscape:connector-curvature="0"
       style="fill:#c83737" />
    <g
       id="g3124">
      <g
         id="g3105">
        <rect
           style="fill:#c83737"
           id="rect3082"
           width="60.73542"
           height="11.490485"
           x="6.8185296"
           y="50.913067"
           transform="translate(0,980.36218)" />
        <rect
           style="fill:#c83737"
           id="rect3086"
           width="31.946074"
           height="19.319168"
           x="8.3337584"
           y="34.750626"
           transform="translate(0,980.36218)" />
        <rect
           style="fill:#c83737"
           id="rect3088"
           width="24.622469"
           height="15.531096"
           x="35.355339"
           y="41.316616"
           transform="translate(0,980.36218)" />
      </g>
      <rect
         transform="translate(0,980.36218)"
         y="6.9999995"
         x="34.017857"
         height="32.67857"
         width="34.55357"
         id="rect3120"
         style="fill:#c83737" />
    </g>
    <path
       sodipodi:type="arc"
       style="fill:#ffffff"
       id="path3112"
       sodipodi:cx="-17.767857"
       sodipodi:cy="-8.000001"
       sodipodi:rx="19.375"
       sodipodi:ry="19.285715"
       d="m 1.6071434,-8.000001 a 19.375,19.285715 0 1 1 -38.7500004,0 19.375,19.285715 0 1 1 38.7500004,0 z"
       transform="matrix(1.1612903,0,0,1.1612903,56.63364,989.6525)" />
    <path
       sodipodi:type="arc"
       style="fill:#c83737"
       id="path3112-2"
       sodipodi:cx="-17.767857"
       sodipodi:cy="-8.000001"
       sodipodi:rx="19.375"
       sodipodi:ry="19.285715"
       d="m 1.6071434,-8.000001 a 19.375,19.285715 0 1 1 -38.7500004,0 19.375,19.285715 0 1 1 38.7500004,0 z"
       transform="matrix(1.0322581,0,0,1.0322581,54.341014,988.6202)" />
    <path
       sodipodi:type="arc"
       style="fill:#ffffff"
       id="path3112-6"
       sodipodi:cx="-17.767857"
       sodipodi:cy="-8.000001"
       sodipodi:rx="19.375"
       sodipodi:ry="19.285715"
       d="m 1.6071434,-8.000001 a 19.375,19.285715 0 1 1 -38.7500004,0 19.375,19.285715 0 1 1 38.7500004,0 z"
       transform="matrix(0.90322581,0,0,0.90322581,52.048387,987.588)" />
    <path
       sodipodi:type="arc"
       style="fill:#c83737"
       id="path3112-2-0"
       sodipodi:cx="-17.767857"
       sodipodi:cy="-8.000001"
       sodipodi:rx="19.375"
       sodipodi:ry="19.285715"
       d="m 1.6071434,-8.000001 a 19.375,19.285715 0 1 1 -38.7500004,0 19.375,19.285715 0 1 1 38.7500004,0 z"
       transform="matrix(0.77419355,0,0,0.77419355,49.75576,986.5557)" />
    <path
       sodipodi:type="arc"
       style="fill:#ffffff"
       id="path3112-6-4"
       sodipodi:cx="-17.767857"
       sodipodi:cy="-8.000001"
       sodipodi:rx="19.375"
       sodipodi:ry="19.285715"
       d="m 1.6071434,-8.000001 a 19.375,19.285715 0 1 1 -38.7500004,0 19.375,19.285715 0 1 1 38.7500004,0 z"
       transform="matrix(0.64516129,0,0,0.64516129,47.463133,985.5235)" />
    <path
       sodipodi:type="arc"
       style="fill:#c83737"
       id="path3112-2-0-5"
       sodipodi:cx="-17.767857"
       sodipodi:cy="-8.000001"
       sodipodi:rx="19.375"
       sodipodi:ry="19.285715"
       d="m 1.6071434,-8.000001 a 19.375,19.285715 0 1 1 -38.7500004,0 19.375,19.285715 0 1 1 38.7500004,0 z"
       transform="matrix(0.51612903,0,0,0.51612903,45.170507,984.4912)" />
    <path
       sodipodi:type="arc"
       style="fill:#ffffff"
       id="path3112-6-4-4"
       sodipodi:cx="-17.767857"
       sodipodi:cy="-8.000001"
       sodipodi:rx="19.375"
       sodipodi:ry="19.285715"
       d="m 1.6071434,-8.000001 a 19.375,19.285715 0 1 1 -38.7500004,0 19.375,19.285715 0 1 1 38.7500004,0 z"
       transform="matrix(0.38709677,0,0,0.38709677,42.87788,983.459)" />
    <path
       sodipodi:type="arc"
       style="fill:#c83737"
       id="path3112-2-0-5-8"
       sodipodi:cx="-17.767857"
       sodipodi:cy="-8.000001"
       sodipodi:rx="19.375"
       sodipodi:ry="19.285715"
       d="m 1.6071434,-8.000001 a 19.375,19.285715 0 1 1 -38.7500004,0 19.375,19.285715 0 1 1 38.7500004,0 z"
       transform="matrix(0.25806452,0,0,0.25806452,40.585253,982.4267)" />
    <path
       sodipodi:type="arc"
       style="fill:#ffffff"
       id="path3112-6-4-4-0"
       sodipodi:cx="-17.767857"
       sodipodi:cy="-8.000001"
       sodipodi:rx="19.375"
       sodipodi:ry="19.285715"
       d="m 1.6071434,-8.000001 a 19.375,19.285715 0 1 1 -38.7500004,0 19.375,19.285715 0 1 1 38.7500004,0 z"
       transform="matrix(0.12903226,0,0,0.12903226,38.292627,981.3944)" />
    <rect
       style="fill:#c83737"
       id="rect3250"
       width="55.548153"
       height="3.056771"
       x="8.2165165"
       y="979.82886" />
    <rect
       style="opacity:0.25;fill:url(#linearGradient4815);fill-opacity:1"
       id="rect4039"
       width="88.785881"
       height="44.070179"
       x="572.65289"
       y="720.07483"
       transform="matrix(0.72713974,0.68648948,-0.52092086,0.85360498,0,0)" />
    <path
       sodipodi:type="arc"
       style="fill:#c83737"
       id="path4831"
       sodipodi:cx="25.65625"
       sodipodi:cy="54.96875"
       sodipodi:rx="5.09375"
       sodipodi:ry="5.09375"
       d="m 30.75,54.96875 a 5.09375,5.09375 0 1 1 -10.1875,0 5.09375,5.09375 0 1 1 10.1875,0 z"
       transform="translate(-0.25,978.79968)" />
    <path
       sodipodi:type="arc"
       style="fill:#c83737"
       id="path4831-3"
       sodipodi:cx="25.65625"
       sodipodi:cy="54.96875"
       sodipodi:rx="5.09375"
       sodipodi:ry="5.09375"
       d="m 30.75,54.96875 a 5.09375,5.09375 0 1 1 -10.1875,0 5.09375,5.09375 0 1 1 10.1875,0 z"
       transform="translate(21.28125,978.33093)" />
    <rect
       style="fill:#c83737"
       id="rect4885"
       width="20.4375"
       height="20.625"
       x="28.75"
       y="26.25"
       transform="translate(0,980.36218)" />
    <rect
       style="fill:#c83737"
       id="rect4887"
       width="5.4375"
       height="6.3125"
       x="45.9375"
       y="41.375"
       transform="translate(0,980.36218)" />
    <path
       id="path3456"
       d="m 49.84,1016.3821 c -0.41,-1.18 -1.53,-2.02 -2.84,-2.02 H 24.999999 c -1.31,0 -2.43,0.84 -2.84,2.02 l -4.16,11.9801 v 16 c 0,1.1 0.9,2 2,2 h 2 c 1.11,0 2,-0.9 2,-2 v -2 H 48 v 2 c 0,1.1 0.9,2 2,2 h 2 c 1.11,0 2,-0.9 2,-2 v -16 l -4.159999,-11.9801 z m -24.840001,19.9801 c -1.66,0 -3,-1.34 -3,-3 0,-1.66 1.34,-3 3,-3 1.66,0 3,1.34 3,3 0,1.66 -1.34,3 -3,3 z m 22.000001,0 c -1.659999,0 -3,-1.34 -3,-3 0,-1.66 1.340001,-3 3,-3 1.66,0 3,1.34 3,3 0,1.66 -1.34,3 -3,3 z m -25.000001,-10 3,-9.0001 H 47 l 3,9.0001 H 21.999999 z"
       inkscape:connector-curvature="0"
       style="fill:#ff7f2a" />
  </g>
</svg>
